<?xml version="1.0" encoding="UTF-8"?>
<svg width="540px" height="540px" viewBox="0 0 540 540" version="1.1" xmlns="http://www.w3.org/2000/svg" xmlns:xlink="http://www.w3.org/1999/xlink">
    <title>disposable</title>
    <g id="disposable" stroke="none" stroke-width="1" fill="none" fill-rule="evenodd">
        <path d="M98.5941645,155.888839 L154.421001,446.717199 C184.233443,463.344645 222.759776,471.658368 270,471.658368 C317.240224,471.658368 355.623186,463.344645 385.148886,446.717199 L441.405836,155.888839" id="Path" stroke="#1786D4" stroke-width="20" stroke-linejoin="round"></path>
        <path d="M90.5,145.269286 C90.5,164.074745 173.015249,182.880204 270,182.880204 C366.984751,182.880204 449.5,164.074745 449.5,145.269286 C449.5,126.463827 373.254174,107.658368 270,107.658368 C166.745826,107.658368 90.5,126.463827 90.5,145.269286 Z" id="Path-3" stroke="#1786D4" stroke-width="23" stroke-linejoin="round"></path>
        <path d="M416.640668,232.375947 C371.063532,244.515269 321.927665,250.524401 269.597452,250.524401 C217.174014,250.524401 168.255035,244.560261 123.077732,232.375947 C123.077732,232.375947 120.26217,215.872886 120.26217,215.872886 C166.016934,228.968718 215.790179,235.524401 269.597452,235.524401 C323.365312,235.524401 373.368818,228.978301 419.62382,215.899667 C419.62382,215.899667 416.640668,232.375947 416.640668,232.375947 Z" id="Path-10" fill="#1786D4" fill-rule="nonzero"></path>
        <path d="M153.65884,390.024435 C188.406044,403.206475 227.173318,409.810913 270,409.810913 C313.01296,409.810913 351.687677,403.148982 386.064257,389.85625 C386.064257,389.85625 382.842034,407.147335 382.842034,407.147335 C348.901019,419.007225 311.256817,424.810913 270,424.810913 C228.805993,424.810913 191.129804,418.967953 156.829753,407.147335 C156.829753,407.147335 153.65884,390.024435 153.65884,390.024435 Z" id="Path-10-Copy" fill="#1786D4" fill-rule="nonzero"></path>
    </g>
</svg>