<?xml version="1.0" encoding="UTF-8"?>
<svg width="540px" height="540px" viewBox="0 0 540 540" version="1.1" xmlns="http://www.w3.org/2000/svg" xmlns:xlink="http://www.w3.org/1999/xlink">
    <title>mug.selected</title>
    <g id="mug.selected" stroke="none" stroke-width="1" fill="none" fill-rule="evenodd" stroke-linejoin="round">
        <path d="M416.735169,232.947491 C468.070838,232.947491 491.594179,254.422089 487.305191,297.371285 C483.016204,340.320481 442.767162,372.515229 366.558066,393.955528 L416.735169,232.947491 Z" id="Path-5" stroke="#1786D4" stroke-width="20"></path>
        <path d="M68.8012505,170.078509 C76.429295,319.329855 91.5891481,409.209907 114.28081,439.718664 C137.595044,471.064466 215.111299,481.308774 249.721679,481.308774 C285.248058,481.308774 360.115558,473.780624 390.218367,439.718664 C409.957986,417.38287 423.432567,327.502818 430.642108,170.078509 C430.642108,206.865829 370.335299,225.25949 249.721679,225.25949 C129.10806,225.25949 68.8012505,206.865829 68.8012505,170.078509 Z" id="Path-4" stroke="#1786D4" stroke-width="20" fill="#1786D4"></path>
        <path d="M68.8012505,170.078509 C68.8012505,191.463377 151.969464,212.848244 249.721679,212.848244 C347.473895,212.848244 430.642108,191.463377 430.642108,170.078509 C430.642108,148.693641 353.79293,127.308774 249.721679,127.308774 C145.650429,127.308774 68.8012505,148.693641 68.8012505,170.078509 Z" id="Path-3" stroke="#1786D4" stroke-width="20"></path>
    </g>
</svg>