<?xml version="1.0" encoding="UTF-8"?>
<svg width="540px" height="540px" viewBox="0 0 540 540" version="1.1" xmlns="http://www.w3.org/2000/svg" xmlns:xlink="http://www.w3.org/1999/xlink">
    <title>latte.selected</title>
    <g id="latte.selected" stroke="none" stroke-width="1" fill="none" fill-rule="evenodd" stroke-linejoin="round">
        <path d="M431.586049,254.828959 C486.206037,254.828959 511.234339,272.167831 506.670954,306.845575 C502.107569,341.523319 459.283501,367.51778 378.198749,384.828959 L431.586049,254.828959 Z" id="Path-5" stroke="#1786D4" stroke-width="20"></path>
        <path d="M54.8012505,193.826413 C64.005776,357.724529 129.505776,439.673587 251.301251,439.673587 C373.096725,439.673587 438.596725,357.724529 447.801251,193.826413 C444.399583,227.67596 378.899583,244.600734 251.301251,244.600734 C123.702918,244.600734 58.2029179,227.67596 54.8012505,193.826413 Z" id="Path-4" stroke="#1786D4" stroke-width="20" fill="#1786D4"></path>
        <path d="M54.8012505,193.826413 C54.8012505,214.576413 145.131315,235.326413 251.301251,235.326413 C357.471186,235.326413 447.801251,214.576413 447.801251,193.826413 C447.801251,173.076413 364.334372,152.326413 251.301251,152.326413 C138.268129,152.326413 54.8012505,173.076413 54.8012505,193.826413 Z" id="Path-3" stroke="#1786D4" stroke-width="20"></path>
    </g>
</svg>