<?xml version="1.0" encoding="UTF-8"?>
<svg width="540px" height="540px" viewBox="0 0 540 540" version="1.1" xmlns="http://www.w3.org/2000/svg" xmlns:xlink="http://www.w3.org/1999/xlink">
    <title>espresso.selected</title>
    <g id="espresso.selected" stroke="none" stroke-width="1" fill="none" fill-rule="evenodd">
        <path d="M141.377576,395.427209 C114.438826,401.480399 97.8012505,409.808987 97.8012505,419.002546 C97.8012505,437.504085 165.182396,452.502546 248.301251,452.502546 C331.420105,452.502546 398.801251,437.504085 398.801251,419.002546 C398.801251,410.099915 383.200001,402.008378 357.751194,396.008656" id="Path" stroke="#1786D4" stroke-width="20" stroke-linecap="round" stroke-linejoin="round"></path>
        <path d="M366.586049,236 C421.206037,236 446.234339,253.338872 441.670954,288.016616 C437.107569,322.69436 394.283501,348.688821 313.198749,366 L366.586049,236 Z" id="Path-5" stroke="#1786D4" stroke-width="20" stroke-linejoin="round"></path>
        <path d="M113.801251,174.997454 C120.101549,338.89557 164.934882,420.844628 248.301251,420.844628 C331.667619,420.844628 376.500952,338.89557 382.801251,174.997454 C382.801251,209.330787 337.967917,226.497454 248.301251,226.497454 C158.634584,226.497454 113.801251,209.330787 113.801251,174.997454 Z" id="Path-4" stroke="#1786D4" stroke-width="20" fill="#1786D4" stroke-linejoin="round"></path>
        <path d="M113.801251,174.997454 C113.801251,195.747454 175.630226,216.497454 248.301251,216.497454 C320.972275,216.497454 382.801251,195.747454 382.801251,174.997454 C382.801251,154.247454 325.669977,133.497454 248.301251,133.497454 C170.932524,133.497454 113.801251,154.247454 113.801251,174.997454 Z" id="Path-3"></path>
        <path d="M248.301251,123.497454 C286.238417,123.497454 321.321487,128.401492 347.65403,136.955423 C375.683964,146.06074 392.801251,158.741151 392.801251,174.997454 C392.801251,191.298041 374.938485,203.830104 345.825295,213.061019 C319.057448,221.548297 284.131797,226.497454 248.301251,226.497454 C212.470704,226.497454 177.545053,221.548297 150.777206,213.061019 C121.664016,203.830104 103.801251,191.298041 103.801251,174.997454 C103.801251,158.741151 120.918537,146.06074 148.948471,136.955423 C175.281014,128.401492 210.364084,123.497454 248.301251,123.497454 Z M248.301251,143.497454 C212.355625,143.497454 179.335847,148.113077 155.127485,155.976985 C144.141457,159.545714 135.503174,163.635918 129.889459,167.794534 C127.452386,169.599907 125.72398,171.319152 124.710956,172.828803 C124.035536,173.835342 123.801251,174.527386 123.801251,174.997454 C123.801251,175.093348 123.827334,175.235098 123.909326,175.460173 C124.052124,175.852164 124.315385,176.33801 124.723908,176.907182 C125.824119,178.440047 127.705207,180.200422 130.340784,182.049476 C136.314768,186.240672 145.410551,190.378154 156.822026,193.996388 C181.546561,201.835793 214.443382,206.497454 248.301251,206.497454 C282.159119,206.497454 315.05594,201.835793 339.780475,193.996388 C351.19195,190.378154 360.287733,186.240672 366.261717,182.049476 C368.897294,180.200422 370.778382,178.440047 371.878593,176.907182 C372.287116,176.33801 372.550377,175.852164 372.693175,175.460173 C372.775167,175.235098 372.801251,175.093348 372.801251,174.997454 C372.801251,174.527386 372.566965,173.835342 371.891545,172.828803 C370.878521,171.319152 369.150115,169.599907 366.713042,167.794534 C361.099327,163.635918 352.461044,159.545714 341.475016,155.976985 C317.266654,148.113077 284.246876,143.497454 248.301251,143.497454 Z" id="Path-3" fill="#1786D4" fill-rule="nonzero"></path>
    </g>
</svg>