<?xml version="1.0" encoding="UTF-8"?>
<svg width="540px" height="540px" viewBox="0 0 540 540" version="1.1" xmlns="http://www.w3.org/2000/svg" xmlns:xlink="http://www.w3.org/1999/xlink">
    <title>espresso</title>
    <g id="espresso" stroke="none" stroke-width="1" fill="none" fill-rule="evenodd" stroke-linejoin="round">
        <path d="M141.377576,395.427209 C114.438826,401.480399 97.8012505,409.808987 97.8012505,419.002546 C97.8012505,437.504085 165.182396,452.502546 248.301251,452.502546 C331.420105,452.502546 398.801251,437.504085 398.801251,419.002546 C398.801251,410.099915 383.200001,402.008378 357.751194,396.008656" id="Path" stroke="#1786D4" stroke-width="20" stroke-linecap="round"></path>
        <path d="M377.698749,236 C424.059252,238.421815 445.889599,255.958593 441.670954,288.016616 C437.755356,317.77174 405.670554,341.133849 345.416546,358.102941" id="Path" stroke="#1786D4" stroke-width="20"></path>
        <path d="M113.801251,174.997454 C120.101549,338.89557 164.934882,420.844628 248.301251,420.844628 C331.667619,420.844628 376.500952,338.89557 382.801251,174.997454" id="Path" stroke="#1786D4" stroke-width="20"></path>
        <path d="M113.801251,174.997454 C113.801251,195.747454 175.630226,216.497454 248.301251,216.497454 C320.972275,216.497454 382.801251,195.747454 382.801251,174.997454 C382.801251,154.247454 325.669977,133.497454 248.301251,133.497454 C170.932524,133.497454 113.801251,154.247454 113.801251,174.997454 Z" id="Path-3" stroke="#1786D4" stroke-width="20"></path>
    </g>
</svg>