<?xml version="1.0" encoding="UTF-8"?>
<svg width="540px" height="540px" viewBox="0 0 540 540" version="1.1" xmlns="http://www.w3.org/2000/svg" xmlns:xlink="http://www.w3.org/1999/xlink">
    <title>disposable.selected</title>
    <g id="disposable.selected" stroke="none" stroke-width="1" fill="none" fill-rule="evenodd">
        <g id="Group" transform="translate(98.5936, 155.8888)" fill="#1786D4">
            <path d="M342.812236,0 L286.555286,290.82836 C257.029586,307.455806 218.646624,315.769529 171.4064,315.769529 C124.166176,315.769529 85.6398433,307.455806 55.8274015,290.82836 L0,0 C7.67885214,25.1546675 64.8013098,35.9418952 171.367373,32.361683 C277.933436,28.7814707 335.081724,17.9942431 342.812236,0 Z M287.470657,233.967411 C253.094077,247.260142 214.41936,253.922074 171.4064,253.922074 C128.579718,253.922074 89.8124439,247.317635 55.0652401,234.135596 C55.0652401,234.135596 55.7885672,238.041555 56.544282,242.122408 L56.7571115,243.271685 C57.5128263,247.352537 58.2361534,251.258496 58.2361534,251.258496 C92.5362036,263.079113 130.212393,268.922074 171.4064,268.922074 C212.663217,268.922074 250.307419,263.118386 284.248434,251.258496 C284.248434,251.258496 284.983465,247.314172 285.751409,243.193236 L285.967682,242.032671 C286.735625,237.911735 287.470657,233.967411 287.470657,233.967411 Z M21.6685697,59.9840471 C21.6685697,59.9840471 24.4841318,76.4871082 24.4841318,76.4871082 C69.6614352,88.6714219 118.580414,94.6355613 171.003852,94.6355613 C223.334065,94.6355613 272.469932,88.6264303 318.047068,76.4871082 C318.047068,76.4871082 318.682532,72.9773679 319.366879,69.1976476 L319.504226,68.4390638 C320.261308,64.2576132 321.03022,60.0108275 321.03022,60.0108275 C274.775218,73.0894615 224.771712,79.6355613 171.003852,79.6355613 C117.196579,79.6355613 67.4233338,73.0798793 21.6685697,59.9840471 Z" id="Combined-Shape"></path>
        </g>
        <path d="M432.217845,151.941584 C436.944178,140.94014 453.497845,146.032201 451.223838,157.788004 L394.966888,448.616364 C394.409379,451.498486 392.61365,453.990076 390.055811,455.430528 C358.8844,472.984758 318.839903,481.658368 270,481.658368 C221.171162,481.658368 180.994947,472.988612 149.550033,455.450679 C146.969345,454.011339 145.157363,451.504334 144.600304,448.60238 L88.7729028,157.77402 C86.3898873,145.359892 104.467228,140.879182 108.157891,152.969191 C110.585269,160.920886 123.800498,168.250682 149.050223,173.018939 C176.757762,178.251339 217.012996,180.02373 269.625201,178.256161 C322.442279,176.481709 362.909971,172.930297 390.891905,167.648468 C404.484621,165.082726 414.984648,162.131771 422.287035,158.892293 C428.312247,156.219394 431.475732,153.668993 432.217845,151.941584 Z M426.8066,178.703839 L426.412605,178.858731 C417.91825,182.146462 407.326101,184.899552 394.601567,187.301417 C365.435214,192.806815 324.04573,196.439123 270.296745,198.244883 C195.297329,200.764577 143.803939,196.545714 115.052639,183.878513 L114.0626,183.431839 L163.3446,440.158839 L163.584199,440.283044 C190.891025,454.327148 225.885537,461.506395 268.633084,461.658368 L270,461.658368 C313.358517,461.658368 348.667531,454.480031 375.993642,440.300843 L376.2286,440.177839 L426.8066,178.703839 Z" id="Path-4" fill="#1786D4" fill-rule="nonzero"></path>
        <path d="M90.5,145.269286 C90.5,164.074745 173.015249,182.880204 270,182.880204 C366.984751,182.880204 449.5,164.074745 449.5,145.269286 C449.5,126.463827 373.254174,107.658368 270,107.658368 C166.745826,107.658368 90.5,126.463827 90.5,145.269286 Z" id="Path-3" stroke="#1786D4" stroke-width="23" stroke-linejoin="round"></path>
    </g>
</svg>